<?xml version="1.0" standalone="no"?>
<!DOCTYPE svg PUBLIC "-//W3C//DTD SVG 20010904//EN"
 "http://www.w3.org/TR/2001/REC-SVG-20010904/DTD/svg10.dtd">
<svg version="1.0" xmlns="http://www.w3.org/2000/svg"
 width="700.000000pt" height="700.000000pt" viewBox="0 0 700.000000 700.000000"
 preserveAspectRatio="xMidYMid meet">
<metadata>
Created by potrace 1.14, written by Peter Selinger 2001-2017
</metadata>
<g transform="translate(0.000000,700.000000) scale(0.100000,-0.100000)"
fill="#000000" stroke="none">
<path d="M290 6897 c-45 -15 -115 -86 -131 -134 -10 -30 -12 -711 -12 -3269
l0 -3231 22 -46 c25 -51 77 -97 130 -115 25 -9 241 -12 780 -12 724 0 747 1
790 20 97 44 130 111 132 269 1 61 4 111 5 111 2 0 43 -20 91 -44 251 -126
642 -261 843 -291 24 -4 47 -8 51 -11 4 -2 28 -6 55 -9 27 -3 56 -8 64 -10 8
-2 38 -6 65 -10 28 -3 66 -7 85 -10 187 -23 601 -23 805 1 22 2 60 6 85 9 133
13 269 38 449 82 251 61 519 161 741 276 118 61 348 200 397 240 15 13 40 31
55 40 114 71 431 365 565 523 86 100 241 302 322 419 210 302 226 339 187 437
-24 61 -66 88 -245 159 -86 34 -230 91 -321 126 -91 36 -178 71 -195 78 -16 7
-46 18 -65 25 -19 7 -49 19 -67 26 -17 8 -73 30 -125 50 -51 19 -106 41 -123
48 -106 47 -281 108 -315 111 -94 7 -176 -42 -251 -152 -85 -126 -136 -189
-233 -288 -348 -356 -777 -537 -1271 -538 -93 0 -197 5 -230 11 -33 6 -74 14
-91 17 -94 15 -346 104 -360 126 -3 5 14 9 38 10 24 0 50 2 58 4 8 1 45 6 82
9 77 8 85 9 233 37 326 60 679 196 919 354 38 25 71 45 73 45 14 0 203 152
280 225 219 205 384 446 509 738 19 44 36 87 37 96 1 9 5 21 9 26 7 11 66 217
73 255 3 14 8 39 12 55 9 39 8 33 17 88 4 27 9 57 11 67 2 10 6 46 10 79 3 33
8 69 10 81 2 11 5 49 7 85 l3 64 36 -1 c20 0 47 3 60 7 23 6 301 113 364 140
17 7 239 95 495 195 256 100 480 194 498 207 69 52 94 151 56 225 -46 90 -248
376 -385 544 -185 228 -441 490 -607 622 -96 77 -270 198 -337 236 -16 9 -46
26 -65 38 -60 36 -261 134 -350 171 -231 95 -541 187 -716 212 -21 3 -64 10
-94 15 -30 5 -82 12 -115 16 -33 3 -68 8 -77 9 -102 20 -608 26 -788 11 -109
-9 -141 -9 -200 1 -19 3 -658 7 -1420 8 -1003 3 -1395 0 -1420 -8z m2990
-1927 c109 -107 190 -265 221 -431 12 -68 15 -229 5 -276 -4 -15 -8 -37 -10
-48 -26 -139 -126 -337 -208 -411 -36 -32 -118 -91 -131 -93 -4 0 -23 -8 -43
-16 -90 -37 -160 -43 -552 -44 -435 -2 -433 -2 -506 79 -37 41 -38 45 -32 94
6 54 30 141 73 266 141 407 464 774 858 975 l108 55 70 -38 c44 -23 100 -65
147 -112z"/>
</g>
</svg>
