<?xml version="1.0" encoding="UTF-8"?>
<svg class="svg-inline--fa fa-infinity fa-w-20" width="640" height="640" aria-hidden="true" data-icon="infinity" data-prefix="fas" focusable="false" role="img" version="1.1" viewBox="0 0 640 640" xmlns="http://www.w3.org/2000/svg">
 <path d="m471.1 160c-66.1 0-117.8 41.3-151.1 78.6-33.3-37.3-85-78.6-151.1-78.6-93.1 0-168.9 71.8-168.9 160s75.8 160 168.9 160c66.1 0 117.8-41.3 151.1-78.6 33.3 37.3 85 78.6 151.1 78.6 93.1 0 168.9-71.8 168.9-160s-75.8-160-168.9-160zm-302.2 224c-40.2 0-72.9-28.7-72.9-64s32.7-64 72.9-64c38.2 0 73.4 36.1 94 64-20.4 27.6-55.9 64-94 64zm302.2 0c-38.2 0-73.4-36.1-94-64 20.4-27.6 55.9-64 94-64 40.2 0 72.9 28.7 72.9 64s-32.7 64-72.9 64z" fill="currentColor"/>
</svg>
